<?xml version="1.0" encoding="UTF-8"?>
<!--Generator: Apple Native CoreSVG 341-->
<!DOCTYPE svg
PUBLIC "-//W3C//DTD SVG 1.1//EN"
       "http://www.w3.org/Graphics/SVG/1.1/DTD/svg11.dtd">
<svg version="1.1" xmlns="http://www.w3.org/2000/svg" xmlns:xlink="http://www.w3.org/1999/xlink" viewBox="0 0 903.32 1203.61">
 <g>
  <rect height="1203.61" opacity="0" width="903.32" x="0" y="0"/>
  <path d="M424.316 237.793C430.664 237.793 434.082 233.887 435.059 228.027C449.707 148.926 448.242 145.02 533.203 129.883C539.062 128.418 542.969 125 542.969 118.652C542.969 112.793 539.062 108.887 533.203 107.91C448.242 92.7734 449.707 88.8672 435.059 9.76562C434.082 3.90625 430.664 0 424.316 0C417.969 0 414.551 3.90625 413.574 9.76562C398.926 88.8672 400.391 92.7734 315.43 107.91C309.082 108.887 305.664 112.793 305.664 118.652C305.664 125 309.082 128.418 315.43 129.883C400.391 145.02 398.926 148.926 413.574 228.027C414.551 233.887 417.969 237.793 424.316 237.793Z" fill="black" fill-opacity="0.85"/>
  <path d="M187.988 573.73C197.266 573.73 203.613 567.383 204.59 558.594C222.168 428.223 226.562 428.223 361.328 402.344C369.629 400.879 375.977 395.02 375.977 385.742C375.977 376.953 369.629 370.605 361.328 369.629C226.562 350.586 221.68 346.191 204.59 213.867C203.613 204.59 197.266 198.242 187.988 198.242C179.199 198.242 172.852 204.59 171.387 214.355C155.762 344.727 148.438 344.238 14.6484 369.629C6.34766 371.094 0 376.953 0 385.742C0 395.508 6.34766 400.879 16.6016 402.344C149.414 423.828 155.762 427.246 171.387 557.617C172.852 567.383 179.199 573.73 187.988 573.73Z" fill="black" fill-opacity="0.85"/>
  <path d="M519.043 1113.77C531.738 1113.77 541.016 1104.49 543.457 1091.31C578.125 824.219 615.723 783.203 880.371 753.906C894.043 752.441 903.32 742.676 903.32 729.492C903.32 716.797 894.043 707.031 880.371 705.566C615.723 676.27 578.125 635.254 543.457 367.676C541.016 354.492 531.738 345.703 519.043 345.703C506.348 345.703 497.07 354.492 495.117 367.676C460.449 635.254 422.363 676.27 158.203 705.566C144.043 707.031 134.766 716.797 134.766 729.492C134.766 742.676 144.043 752.441 158.203 753.906C421.875 788.574 458.496 824.219 495.117 1091.31C497.07 1104.49 506.348 1113.77 519.043 1113.77Z" fill="black" fill-opacity="0.85"/>
 </g>
</svg>
